<?xml version="1.0" encoding="UTF-8"?>
<svg width="93px" height="36px" viewBox="0 0 93 36" version="1.1" xmlns="http://www.w3.org/2000/svg" xmlns:xlink="http://www.w3.org/1999/xlink">
    <!-- Generator: Sketch 44.1 (41455) - http://www.bohemiancoding.com/sketch -->
    <title>logooooo</title>
    <desc>Created with Sketch.</desc>
    <defs></defs>
    <g id="Page-1" stroke="none" stroke-width="1" fill="none" fill-rule="evenodd">
        <g id="logooooo" fill-rule="nonzero">
            <path d="M36.5,11 C37.0603333,11 37.534,10.8066667 37.9203333,10.4203333 C38.3066667,10.034 38.5,9.56066667 38.5,9 C38.5,8.43966667 38.3066667,7.966 37.9203333,7.57966667 C37.534,7.19333333 37.0603333,7 36.5,7 C35.9393333,7 35.466,7.19333333 35.0793333,7.57966667 C34.6933333,7.966 34.5,8.43966667 34.5,9 C34.5,9.56066667 34.6933333,10.034 35.0793333,10.4203333 C35.466,10.8066667 35.9393333,11 36.5,11" id="Fill-4" fill="#000000"></path>
            <path d="M50,24 L47,24 L47,18 C47,16.1134644 46,15.7505343 45.5,15.7505343 C43.7875366,15.7505345 43,17.0169067 43,18 L43,24 L40,24 L40,13.0228387 L43,13.0228387 L43,14.2626681 C44.0758261,13.314459 44.7709961,12.7999992 46,12.7999992 C48.5700684,12.7999992 49.2246957,14.3508983 49.5227826,15 C49.9627826,14.2694006 51.1904907,12.7999992 53,12.7999992 C55.5075684,12.7999992 57,14.4697876 57,17.0169067 L57,24 L54,24 L54,18 C54,16.2955322 53.4598389,15.7505344 52.5,15.7505343 C51.0116577,15.7505343 50,17.0169067 50,18 L50,24 Z" id="Fill-6" fill="#000000"></path>
            <path d="M62,18.5398694 C62,19.4103521 62.2623407,20.121357 62.7873744,20.6725344 C63.3120558,21.2244113 63.9483642,21.5 64.6959472,21.5 C65.4435303,21.5 66.0977976,21.2244113 66.658749,20.6725344 C67.2193482,20.121357 67.5,19.4138494 67.5,18.5500117 C67.5,17.6861739 67.2267431,16.9618792 66.6802292,16.3771275 C66.1337153,15.7923758 65.4794481,15.5 64.7174275,15.5 C63.9554069,15.5 63.3120558,15.7888785 62.7873744,16.3669853 C62.2623407,16.9450921 62,17.6697365 62,18.5398694 L62,18.5398694 Z M70.5,18.5 C70.5,21.1650924 68.4838867,24 65.5,24 C64.0042725,24 63.0476522,23.3964352 62,22.5 L62,28 L59,28 L59,13.0294786 L62,13.0294786 L62,14.2263482 C63.1756522,13.308783 64.0117188,13 65.5,13 C68.5372314,13 70.5,15.5463866 70.5,18.5 Z" id="Fill-8" fill="#000000"></path>
            <polygon id="Fill-10" fill="#000000" points="75 24 72 24 72 7 75 7"></polygon>
            <path d="M78.5,11 C79.0603333,11 79.534,10.8066667 79.9203333,10.4203333 C80.3066667,10.034 80.5,9.56066667 80.5,9 C80.5,8.43966667 80.3066667,7.966 79.9203333,7.57966667 C79.534,7.19333333 79.0603333,7 78.5,7 C77.9393333,7 77.466,7.19333333 77.0793333,7.57966667 C76.6933333,7.966 76.5,8.43966667 76.5,9 C76.5,9.56066667 76.6933333,10.034 77.0793333,10.4203333 C77.466,10.8066667 77.9393333,11 78.5,11" id="Fill-12" fill="#000000"></path>
            <polygon id="Fill-14" fill="#000000" points="77 24 80 24 80 13 77 13"></polygon>
            <polygon id="Fill-16" fill="#000000" points="35 24 38 24 38 13 35 13"></polygon>
            <path d="M85,18.5100334 C85,19.3929766 85.2340508,20.1122162 85.7021525,20.6670481 C86.1705783,21.222232 86.7696447,21.5 87.5,21.5 C88.2303553,21.5 88.8297459,21.222232 89.2978475,20.6670481 C89.7659492,20.1122162 90,19.3929766 90,18.5100334 C90,17.6270903 89.7659492,16.9046823 89.2978475,16.3431614 C88.8297459,15.7809365 88.2303553,15.5 87.5,15.5 C86.7696447,15.5 86.1705783,15.7809365 85.7021525,16.3428094 C85.2340508,16.9046823 85,17.6270903 85,18.5100334 M93,18.5101945 C93,20.0559517 92.4779695,21.357733 91.4339085,22.4145016 C90.390181,23.4719613 89.0786002,24 87.4998332,24 C85.9210662,24 84.609819,23.4719613 83.565758,22.4145016 C82.5216969,21.357733 82,20.0559517 82,18.5101945 C82,16.9640916 82.5216969,15.6592002 83.565758,14.5955201 C84.609819,13.5321856 85.9210662,13 87.4998332,13 C89.0786002,13 90.390181,13.5321856 91.4339085,14.5955201 C92.4779695,15.6592002 93,16.9640916 93,18.5101945" id="Fill-17" fill="#000000"></path>
            <path d="M25.2676786,20.2678571 C24.7794643,20.7560714 24.1398214,21 23.4998214,21 C22.8601786,21 22.2205357,20.7560714 21.7323214,20.2678571 C20.7558929,19.2914286 20.7558929,17.7085714 21.7323214,16.7321429 C22.2201786,16.2442857 22.8601786,16 23.4998214,16 C24.1398214,16 24.7794643,16.2442857 25.2676786,16.7321429 C26.2441071,17.7085714 26.2441071,19.2914286 25.2676786,20.2678571 M15.0680729,34.3876704 L27.3885475,22.06411 C29.2957829,20.1560558 29.5716552,17.0845457 27.8850494,14.9790008 C27.7595599,14.8220996 27.6269093,14.674749 27.4891437,14.5366078 C26.4637447,13.5092465 25.1201889,13 23.7756101,13 C23.5877169,13 23.3994827,13.0098916 23.2126125,13.0300159 C22.059337,13.152467 20.9384568,13.6490931 20.0545744,14.5331969 L7.53904553,27.0518604 C5.34775381,29.2440421 5.49643156,32.8899468 7.98507877,34.8846376 C8.9248858,35.6381041 10.0573601,36 11.1925624,36 C12.6002269,36 14.0123245,35.4436832 15.0680729,34.3876704" id="Fill-1" fill="#000000"></path>
            <path d="M5.35982609,13 C2.19878261,13.1065391 -0.322956522,15.842887 0.0499992371,19.0762783 C0.0895652174,19.5809739 0.217913043,20.0606261 0.450000763,20.5082783 C0.58973913,20.9583652 0.838086957,21.3886261 1.15565217,21.7848 C3.18973913,24.3232348 6.90765217,24.474887 9.14313043,22.2397565 L18,13 L5.35982609,13 Z" id="Fill-18" fill="#5A0078"></path>
            <path d="M14.4507734,1.58930532 C12.1879219,-0.673546243 8.2314041,-0.509222237 6.17244159,2.06069539 C5.85093778,2.46213498 5.59950983,2.89738001 5.41393206,3.35304915 C5.22307219,3.80625332 5.09278039,4.29185436 5.03643799,4.80316162 C4.67514236,8.07630281 7.42065073,10.8357971 10.838768,11 L24,11 L14.4507734,1.58930532 Z" id="Fill-19" fill="#FF005A"></path>
        </g>
    </g>
</svg>